<svg width="115" height="39" fill="none" xmlns="http://www.w3.org/2000/svg"><path d="M105.507 9.12L101.469.404h5.911l1.319 2.927 1.36-2.927H115l-4.121 8.718v5.576h-5.372V9.12zM95.192 0c1.542 0 2.792.197 3.748.59.962.395 1.666 1.018 2.114 1.871.448.854.672 1.976.672 3.366 0 .93-.163 1.784-.49 2.56a6.001 6.001 0 01-3.324 3.303 6.391 6.391 0 01-2.421.456c-.222 0-.45-.006-.689-.018a15.538 15.538 0 00-.787-.018v2.587H88.6V.439C89.888.3 91.077.194 92.166.116A42.793 42.793 0 0195.192 0zm.879 3.715c-.193 0-.412.053-.655.16a5.212 5.212 0 00-.688.377 8.93 8.93 0 00-.54.367l-.206.16v3.375l.97-.51a5.444 5.444 0 001.442-1.101c.41-.442.614-1.012.614-1.71a1.26 1.26 0 00-.249-.778c-.16-.227-.39-.34-.688-.34zM80.666 0c1.542 0 2.791.197 3.747.59.962.395 1.667 1.018 2.115 1.871.447.854.671 1.976.671 3.366 0 .93-.163 1.784-.489 2.56a6.012 6.012 0 01-3.325 3.303 6.39 6.39 0 01-2.42.456c-.222 0-.451-.006-.689-.018a15.535 15.535 0 00-.788-.018v2.587h-5.414V.439A102.69 102.69 0 0177.64.116 42.79 42.79 0 0180.665 0zm.879 3.715c-.194 0-.412.053-.655.16a5.217 5.217 0 00-.689.377c-.215.137-.395.26-.538.367l-.208.16v3.375l.97-.51a5.444 5.444 0 001.443-1.101c.41-.442.614-1.012.614-1.71a1.26 1.26 0 00-.25-.778c-.16-.227-.389-.34-.687-.34zM72.051 14.697h-5.157V.403h5.157v14.294z" fill="#fff"/><path d="M58.263.144c1.072 0 1.981.151 2.727.456.746.298 1.35.695 1.808 1.19a4.69 4.69 0 011.004 1.638c.215.596.323 1.193.323 1.79 0 1.044-.246 1.942-.738 2.694a6.267 6.267 0 01-1.046 1.215c2.362 1.59 2.596 4.477 2.596 5.839 0 1.465 1.137 3.106 2.602 3.106h42.05c.909 0 1.646.738 1.646 1.648 0 .856-.617 1.587-1.462 1.73L8.563 38.605a1.655 1.655 0 01-.825-3.19L56 18.44c2.219-.78 4.567-2.126 4.494-4.477-.066-2.148-1.592-3.58-3.183-2.864-.28.125-.494.322-.66.56-.018.028-.036.055-.053.084-.797 1.355-.382 3.068-.374 3.097h-5.414V.546l.514-.036a92.613 92.613 0 013.2-.224c.67-.042 1.33-.075 1.982-.099.658-.03 1.244-.043 1.758-.043zm6.393 21.09a20.003 20.003 0 00-5.303.863L23.35 33.08 99.96 20.292l-35.304.941zM58.33 3.803c-.16 0-.326.03-.497.09a5.063 5.063 0 00-.539.206l-1.103.492v3.5c1.073-.43 1.84-.896 2.305-1.397.47-.507.705-1.05.705-1.629 0-.483-.083-.815-.249-.994a.813.813 0 00-.622-.268z" fill="#fff"/><path d="M35.984.403l.498-.036c.331-.03.765-.066 1.302-.107.536-.042 1.119-.081 1.749-.117.63-.042 1.25-.074 1.857-.098C42.004.015 42.545 0 43.015 0c1.084 0 2.023.22 2.82.662a5.842 5.842 0 011.973 1.773c.52.734.906 1.548 1.16 2.443.255.89.382 1.784.382 2.685 0 1.122-.177 2.125-.53 3.008a6.376 6.376 0 01-1.485 2.246 6.36 6.36 0 01-2.23 1.405 7.89 7.89 0 01-2.77.475h-6.35V.403zm5.157 9.989c.294-.269.609-.537.946-.806.337-.268.655-.555.953-.86.304-.303.55-.644.738-1.02.194-.381.29-.82.29-1.315 0-.328-.063-.663-.19-1.003a2.19 2.19 0 00-.556-.85 1.218 1.218 0 00-.887-.35 1.29 1.29 0 00-.721.225c-.221.149-.412.325-.572.528v5.45zM15.687.403h9.543V4.52h-4.386v1.173h4.37V9.2h-4.37v1.352h4.676v4.144h-9.833V.403zM0 .403L.464.385A96.216 96.216 0 013.324.26a89.414 89.414 0 011.75-.054C5.65.188 6.154.179 6.592.179c1.641 0 2.937.137 3.888.412.956.268 1.64.653 2.048 1.154.41.496.614 1.086.614 1.773 0 .656-.16 1.208-.481 1.655-.315.442-.799.824-1.451 1.146.459.167.898.406 1.318.716.42.31.766.743 1.037 1.298.27.549.406 1.277.406 2.184 0 .835-.16 1.525-.481 2.068a3.545 3.545 0 01-1.269 1.288c-.53.31-1.122.54-1.774.69a13.01 13.01 0 01-1.99.277c-.674.042-1.31.063-1.907.063-.193 0-.511-.006-.953-.018-.437-.012-.935-.027-1.493-.045a155.689 155.689 0 01-3.15-.134A56.788 56.788 0 010 14.66V.403zm5.182 6.543c.47-.197.92-.406 1.352-.627a3.976 3.976 0 001.07-.779 1.46 1.46 0 00.414-1.038c0-.262-.094-.456-.282-.582a.972.972 0 00-.556-.188c-.188 0-.395.045-.622.135a4.646 4.646 0 00-.646.295 8.919 8.919 0 00-.514.304c-.133.09-.205.14-.216.153v2.327zm3.275 2.193c0-.275-.08-.469-.24-.582a.956.956 0 00-.58-.17c-.25 0-.529.068-.838.206-.31.137-.608.292-.896.465-.287.173-.527.31-.72.412v2.255l.43-.179c.575-.232 1.075-.45 1.5-.653.427-.209.755-.448.988-.716.237-.275.356-.62.356-1.038z" fill="#fff"/></svg>